<svg width="14" height="14" viewBox="0 0 14 14" fill="none" xmlns="http://www.w3.org/2000/svg">
<g id="Image">
<g id="Group 3">
<mask id="mask0_216_113" style="mask-type:luminance" maskUnits="userSpaceOnUse" x="0" y="0" width="14" height="14">
<path id="Clip 2" fill-rule="evenodd" clip-rule="evenodd" d="M0.332031 0.333984H13.6384V13.6339H0.332031V0.333984Z" fill="white"/>
</mask>
<g mask="url(#mask0_216_113)">
<path id="Fill 1" fill-rule="evenodd" clip-rule="evenodd" d="M4.0987 1.33398C2.41803 1.33398 1.33203 2.48532 1.33203 4.26665V9.70132C1.33203 11.4833 2.41803 12.634 4.0987 12.634H9.86536C11.55 12.634 12.6387 11.4833 12.6387 9.70132V4.26665C12.6387 2.48532 11.55 1.33398 9.86536 1.33398H4.0987ZM9.86536 13.634H4.0987C1.84536 13.634 0.332031 12.0533 0.332031 9.70132V4.26665C0.332031 1.91465 1.84536 0.333984 4.0987 0.333984H9.86536C12.122 0.333984 13.6387 1.91465 13.6387 4.26665V9.70132C13.6387 12.0533 12.122 13.634 9.86536 13.634V13.634Z" fill="#1989AD"/>
</g>
</g>
<path id="Fill 4" fill-rule="evenodd" clip-rule="evenodd" d="M2.51954 10.4546C2.39554 10.4546 2.2722 10.4092 2.17554 10.3172C1.97487 10.1279 1.96687 9.81056 2.15687 9.61123L3.17554 8.53589C3.71487 7.96323 4.62487 7.93523 5.2002 8.47523L5.83887 9.12323C6.01687 9.30323 6.3062 9.30656 6.48487 9.13056C6.5522 9.05123 8.0042 7.28789 8.0042 7.28789C8.2802 6.95323 8.66954 6.74656 9.1022 6.70389C9.53553 6.66589 9.9562 6.79189 10.2915 7.06723C10.3202 7.09056 10.3462 7.11323 11.8102 8.61656C12.0029 8.81389 11.9995 9.13056 11.8015 9.32323C11.6042 9.51723 11.2869 9.51123 11.0942 9.31389C11.0942 9.31389 9.7282 7.91189 9.63087 7.81723C9.52753 7.73256 9.36154 7.68323 9.1982 7.69923C9.0322 7.71589 8.88287 7.79523 8.77687 7.92389C7.22754 9.80323 7.20887 9.82123 7.18353 9.84589C6.61153 10.4072 5.6882 10.3979 5.1262 9.82456C5.1262 9.82456 4.5062 9.19523 4.49554 9.18256C4.34154 9.03989 4.06687 9.04923 3.9022 9.22323L2.8822 10.2986C2.78354 10.4026 2.65154 10.4546 2.51954 10.4546V10.4546Z" fill="#1989AD"/>
<path id="Fill 6" fill-rule="evenodd" clip-rule="evenodd" d="M4.70382 4.41992C4.33516 4.41992 4.03516 4.71992 4.03516 5.08926C4.03516 5.45859 4.33516 5.75926 4.70449 5.75926C5.07382 5.75926 5.37449 5.45859 5.37449 5.08926C5.37449 4.72059 5.07382 4.42059 4.70382 4.41992M4.70449 6.75926C3.78382 6.75926 3.03516 6.00992 3.03516 5.08926C3.03516 4.16859 3.78382 3.41992 4.70449 3.41992C5.62582 3.42059 6.37449 4.16992 6.37449 5.08926C6.37449 6.00992 5.62516 6.75926 4.70449 6.75926" fill="#1989AD"/>
</g>
</svg>
